<svg xmlns="http://www.w3.org/2000/svg" width="800" height="450" viewBox="0 0 800 450"><rect width="100%" height="100%" fill="#e5e7eb"/><path fill="#6b7280" d="M168.55 200.7v39.77h-7.43V200.7zm14.6 39.77h-6.79v-28.21h4.15q1.32 0 1.73 1.23l.44 2.09q.75-.82 1.56-1.51t1.73-1.18q.92-.5 1.98-.79t2.32-.29q2.67 0 4.39 1.45 1.72 1.44 2.57 3.83.66-1.4 1.65-2.4.99-1.01 2.17-1.64 1.19-.63 2.52-.93 1.33-.31 2.68-.31 2.34 0 4.15.72 1.82.71 3.06 2.09 1.23 1.37 1.88 3.35t.65 4.54v17.96h-6.8v-17.96q0-2.69-1.18-4.05-1.18-1.37-3.46-1.37-1.05 0-1.94.36-.9.36-1.57 1.03-.67.68-1.06 1.69-.38 1.02-.38 2.34v17.96h-6.82v-17.96q0-2.83-1.15-4.12-1.14-1.3-3.34-1.3-1.48 0-2.76.73t-2.38 2zm54.18-7.29v-4.75q-2.95.13-4.95.5-2.01.37-3.22.95t-1.73 1.35q-.53.77-.53 1.68 0 1.78 1.06 2.56 1.06.76 2.77.76 2.09 0 3.61-.75 1.53-.76 2.99-2.3m-14.36-14.82-1.21-2.17q4.87-4.46 11.72-4.46 2.47 0 4.42.81 1.96.82 3.3 2.26 1.35 1.44 2.05 3.45t.7 4.4v17.82h-3.08q-.96 0-1.48-.29t-.83-1.17l-.6-2.03q-1.07.96-2.09 1.69t-2.12 1.22q-1.1.5-2.35.76t-2.76.26q-1.79 0-3.3-.48-1.52-.48-2.62-1.45-1.1-.96-1.7-2.39-.61-1.43-.61-3.33 0-1.07.36-2.13.36-1.05 1.17-2.02.81-.96 2.1-1.81 1.3-.86 3.18-1.49t4.39-1.03q2.5-.4 5.72-.48v-1.65q0-2.83-1.21-4.19-1.21-1.37-3.5-1.37-1.65 0-2.73.39-1.09.38-1.91.87-.83.48-1.5.86-.68.39-1.5.39-.72 0-1.21-.37-.5-.37-.8-.87m37.68 7.32q1.26 0 2.2-.35.93-.34 1.55-.95.62-.6.93-1.46.32-.85.32-1.86 0-2.09-1.25-3.32-1.25-1.22-3.75-1.22-2.51 0-3.76 1.22-1.25 1.23-1.25 3.32 0 .98.32 1.84.31.85.93 1.47t1.57.96q.95.35 2.19.35m7.67 16.05q0-.82-.5-1.34-.49-.52-1.34-.81-.86-.29-2-.43t-2.42-.21q-1.28-.06-2.64-.12t-2.65-.22q-1.13.63-1.83 1.48-.7.86-.7 1.98 0 .75.37 1.39.37.65 1.18 1.12t2.11.73q1.29.26 3.16.26 1.9 0 3.27-.29 1.38-.29 2.27-.8t1.31-1.21q.41-.7.41-1.53m-1.35-28.51h8.11v2.53q0 1.21-1.45 1.48l-2.53.47q.57 1.46.57 3.19 0 2.09-.84 3.78-.83 1.69-2.32 2.87-1.48 1.19-3.51 1.83-2.02.65-4.35.65-.83 0-1.6-.08-.77-.09-1.51-.22-1.32.79-1.32 1.79 0 .85.78 1.25.79.39 2.08.56 1.29.16 2.94.21 1.65.04 3.38.18 1.74.13 3.39.48 1.65.34 2.94 1.08t2.07 2.02q.79 1.28.79 3.29 0 1.87-.92 3.63t-2.67 3.14q-1.75 1.37-4.29 2.21t-5.79.84q-3.19 0-5.55-.62-2.37-.62-3.94-1.65-1.56-1.03-2.33-2.38t-.77-2.8q0-1.99 1.19-3.32 1.2-1.33 3.29-2.13-1.13-.58-1.79-1.54t-.66-2.53q0-.63.23-1.31.24-.67.69-1.33.46-.66 1.14-1.25.69-.59 1.63-1.06-2.15-1.15-3.37-3.08-1.23-1.93-1.23-4.51 0-2.09.84-3.78t2.34-2.89 3.55-1.83 4.47-.63q1.81 0 3.41.37 1.59.37 2.91 1.09m17.77 9.9h12.81q0-1.32-.37-2.49t-1.11-2.05q-.75-.88-1.89-1.39t-2.65-.51q-2.94 0-4.64 1.68-1.69 1.68-2.15 4.76m17.32 4.09H284.6q.16 2.18.77 3.76.6 1.58 1.59 2.61t2.35 1.54q1.37.51 3.02.51t2.84-.38q1.2-.39 2.09-.86.9-.46 1.57-.85t1.31-.39q.85 0 1.26.64l1.95 2.47q-1.12 1.32-2.53 2.22-1.4.89-2.93 1.43-1.52.53-3.1.75t-3.07.22q-2.94 0-5.47-.97-2.53-.98-4.4-2.89t-2.94-4.73q-1.08-2.82-1.08-6.53 0-2.89.94-5.43.93-2.55 2.68-4.43 1.75-1.89 4.26-2.98 2.52-1.11 5.68-1.11 2.67 0 4.92.86 2.26.85 3.88 2.49 1.62 1.63 2.54 4.01.93 2.38.93 5.43 0 1.54-.33 2.08-.33.53-1.27.53m12.57-13.72.47 2.23q.85-.85 1.8-1.58t2-1.24q1.06-.51 2.27-.8t2.64-.29q2.31 0 4.1.79 1.79.78 2.98 2.2 1.2 1.42 1.82 3.38.62 1.97.62 4.33v17.96h-6.79v-17.96q0-2.58-1.19-4-1.18-1.42-3.6-1.42-1.76 0-3.3.8t-2.91 2.17v20.41h-6.8v-28.21h4.16q1.32 0 1.73 1.23m56.21 18.62v-12.65q-1.16-1.4-2.52-1.98t-2.93-.58q-1.54 0-2.77.58-1.24.58-2.12 1.75t-1.35 2.97-.47 4.24q0 2.48.4 4.2t1.14 2.8q.75 1.09 1.82 1.57t2.39.48q2.12 0 3.6-.88 1.49-.88 2.81-2.5m0-32.51h6.79v40.87h-4.15q-1.35 0-1.71-1.24l-.57-2.72q-1.71 1.95-3.92 3.16-2.22 1.21-5.16 1.21-2.31 0-4.23-.96-1.93-.96-3.32-2.79t-2.14-4.53q-.76-2.69-.76-6.16 0-3.13.85-5.83.86-2.69 2.45-4.67 1.6-1.98 3.82-3.09 2.23-1.12 5.01-1.12 2.36 0 4.04.74 1.68.75 3 2.01zm18.86 23.52h12.82q0-1.32-.37-2.49t-1.12-2.05q-.74-.88-1.88-1.39t-2.65-.51q-2.95 0-4.64 1.68t-2.16 4.76m17.33 4.09h-17.46q.16 2.18.77 3.76.6 1.58 1.59 2.61t2.35 1.54 3.01.51 2.85-.38q1.2-.39 2.09-.86.89-.46 1.57-.85.67-.39 1.3-.39.86 0 1.27.64l1.95 2.47q-1.13 1.32-2.53 2.22-1.4.89-2.93 1.43-1.52.53-3.11.75-1.58.22-3.06.22-2.94 0-5.47-.97-2.53-.98-4.4-2.89t-2.95-4.73q-1.07-2.82-1.07-6.53 0-2.89.94-5.43.93-2.55 2.68-4.43 1.74-1.89 4.26-2.98 2.52-1.11 5.68-1.11 2.67 0 4.92.86 2.26.85 3.88 2.49 1.62 1.63 2.54 4.01t.92 5.43q0 1.54-.33 2.08-.33.53-1.26.53m6.76-27.61h6.8v40.87h-6.8zm36.39 25.85h12.65l-4.84-13.22q-.36-.88-.75-2.09-.38-1.21-.77-2.62-.35 1.41-.74 2.63-.38 1.23-.74 2.13zm10.09-24.75 15.62 39.77h-5.72q-.96 0-1.57-.48-.6-.48-.91-1.2l-2.97-8.11h-16.47l-2.97 8.11q-.22.64-.85 1.16t-1.57.52h-5.77l15.64-39.77zm24.56 12.79.46 2.23q.86-.85 1.8-1.58.95-.73 2.01-1.24t2.27-.8 2.64-.29q2.31 0 4.1.79 1.79.78 2.98 2.2 1.2 1.42 1.82 3.38.62 1.97.62 4.33v17.96h-6.8v-17.96q0-2.58-1.18-4t-3.6-1.42q-1.76 0-3.3.8t-2.92 2.17v20.41h-6.79v-28.21h4.15q1.32 0 1.74 1.23m42.65-1.23h6.79v28.21h-4.15q-1.35 0-1.71-1.24l-.46-2.25q-1.74 1.76-3.83 2.84-2.09 1.09-4.92 1.09-2.31 0-4.08-.78-1.78-.79-2.99-2.22t-1.83-3.39q-.61-1.97-.61-4.34v-17.92h6.79v17.92q0 2.59 1.19 4.01 1.2 1.41 3.59 1.41 1.76 0 3.3-.78t2.92-2.16zm19.39 1.23.46 2.23q.86-.85 1.8-1.58.95-.73 2.01-1.24t2.27-.8 2.64-.29q2.31 0 4.1.79 1.79.78 2.98 2.2 1.2 1.42 1.82 3.38.62 1.97.62 4.33v17.96h-6.8v-17.96q0-2.58-1.18-4t-3.6-1.42q-1.76 0-3.3.8t-2.92 2.17v20.41h-6.79v-28.21h4.15q1.32 0 1.74 1.23m47.13 2.26-1.79 2.47q-.3.39-.59.61t-.84.22q-.52 0-1.01-.32-.5-.31-1.19-.71-.68-.4-1.63-.72-.95-.31-2.35-.31-1.79 0-3.14.64-1.35.65-2.24 1.86t-1.33 2.93q-.44 1.71-.44 3.89 0 2.25.48 4.01t1.39 2.96q.9 1.19 2.2 1.81 1.29.62 2.91.62t2.63-.4q1-.39 1.69-.88.69-.48 1.19-.88.51-.4 1.15-.4.82 0 1.23.64l1.96 2.47q-1.13 1.32-2.45 2.22-1.32.89-2.74 1.43-1.41.53-2.91.75t-2.99.22q-2.61 0-4.92-.97-2.31-.98-4.04-2.85t-2.74-4.58q-1-2.71-1-6.17 0-3.11.89-5.76.9-2.66 2.63-4.6t4.29-3.03q2.56-1.11 5.88-1.11 3.17 0 5.54 1.02 2.38 1.02 4.28 2.92m4.73-3.49h6.82v28.21h-6.82zm7.76-8.23q0 .88-.36 1.65t-.95 1.35-1.39.92q-.8.35-1.7.35-.88 0-1.67-.35-.78-.34-1.36-.92t-.92-1.35-.34-1.65q0-.9.34-1.7t.92-1.38q.58-.57 1.36-.92.79-.34 1.67-.34.9 0 1.7.34.8.35 1.39.92.59.58.95 1.38t.36 1.7m18.48 7.78q3.13 0 5.7 1.02t4.4 2.89 2.82 4.57q.99 2.69.99 6.02 0 3.35-.99 6.05-.99 2.69-2.82 4.59t-4.4 2.92q-2.57 1.01-5.7 1.01-3.17 0-5.75-1.01-2.59-1.02-4.42-2.92-1.82-1.9-2.83-4.59-1-2.7-1-6.05 0-3.33 1-6.02 1.01-2.7 2.83-4.57 1.83-1.87 4.42-2.89 2.58-1.02 5.75-1.02m0 23.85q3.52 0 5.21-2.37 1.69-2.36 1.69-6.93 0-4.56-1.69-6.96-1.69-2.39-5.21-2.39-3.58 0-5.3 2.41t-1.72 6.94q0 4.54 1.72 6.92t5.3 2.38"/></svg>