<svg xmlns="http://www.w3.org/2000/svg" width="800" height="450" viewBox="0 0 800 450"><rect width="100%" height="100%" fill="#10b981"/><path fill="#ffffff" d="M182.055 172.17v85.31h-15.93v-85.31zm31.33 85.31h-14.57v-60.53h8.9q2.84 0 3.72 2.65l.95 4.48q1.59-1.77 3.33-3.24 1.74-1.48 3.72-2.54 1.97-1.06 4.24-1.68 2.28-.62 4.99-.62 5.72 0 9.41 3.1t5.52 8.23q1.41-3.01 3.54-5.16 2.12-2.16 4.66-3.51 2.53-1.36 5.4-2.01 2.86-.65 5.75-.65 5.01 0 8.91 1.54 3.89 1.53 6.55 4.48 2.65 2.95 4.04 7.2 1.38 4.25 1.38 9.73v38.53h-14.57v-38.53q0-5.78-2.54-8.7-2.53-2.92-7.43-2.92-2.24 0-4.16.77-1.92.76-3.36 2.21-1.45 1.44-2.27 3.63-.83 2.18-.83 5.01v38.53h-14.63v-38.53q0-6.07-2.45-8.85-2.45-2.77-7.17-2.77-3.18 0-5.93 1.56-2.74 1.57-5.1 4.28zm116.23-15.64v-10.2q-6.31.29-10.62 1.09t-6.9 2.04q-2.6 1.23-3.72 2.89-1.12 1.65-1.12 3.59 0 3.84 2.27 5.49t5.93 1.65q4.48 0 7.76-1.62 3.27-1.62 6.4-4.93m-30.8-31.8-2.6-4.66q10.45-9.56 25.14-9.56 5.31 0 9.5 1.75 4.19 1.74 7.08 4.83 2.89 3.1 4.39 7.41 1.51 4.3 1.51 9.44v38.23h-6.61q-2.07 0-3.19-.62t-1.77-2.51l-1.29-4.36q-2.31 2.06-4.49 3.63-2.18 1.56-4.54 2.62t-5.05 1.62q-2.68.56-5.93.56-3.83 0-7.08-1.03-3.24-1.03-5.6-3.1-2.36-2.06-3.66-5.13t-1.3-7.14q0-2.3.77-4.57t2.51-4.34q1.74-2.06 4.51-3.89t6.82-3.19q4.04-1.35 9.41-2.21t12.27-1.03v-3.54q0-6.08-2.6-9-2.59-2.92-7.49-2.92-3.54 0-5.87.83-2.33.82-4.1 1.85-1.77 1.04-3.22 1.86-1.44.83-3.21.83-1.54 0-2.6-.8-1.06-.79-1.71-1.86m80.83 15.7q2.71 0 4.72-.74t3.33-2.04q1.33-1.29 2.01-3.12t.68-4.01q0-4.49-2.69-7.11-2.68-2.63-8.05-2.63t-8.05 2.63q-2.69 2.62-2.69 7.11 0 2.12.68 3.95t2.01 3.16q1.32 1.32 3.36 2.06t4.69.74m16.46 34.45q0-1.77-1.06-2.89t-2.89-1.74-4.28-.91q-2.45-.3-5.19-.44-2.74-.15-5.66-.27-2.93-.12-5.7-.47-2.42 1.35-3.92 3.18-1.51 1.83-1.51 4.25 0 1.6.8 2.98.8 1.39 2.54 2.39t4.51 1.56q2.77.57 6.79.57 4.07 0 7.02-.62t4.86-1.72q1.92-1.09 2.81-2.59.88-1.51.88-3.28m-2.89-61.18h17.41v5.43q0 2.59-3.13 3.18l-5.43 1.01q1.24 3.12 1.24 6.84 0 4.49-1.8 8.11-1.8 3.63-4.99 6.17-3.18 2.54-7.52 3.92-4.33 1.39-9.35 1.39-1.77 0-3.42-.18-1.65-.17-3.25-.47-2.83 1.71-2.83 3.84 0 1.82 1.68 2.68t4.46 1.21q2.77.35 6.31.44t7.26.39q3.71.29 7.25 1.03t6.32 2.33q2.77 1.59 4.45 4.34 1.68 2.74 1.68 7.05 0 4.01-1.97 7.78-1.98 3.78-5.73 6.73-3.74 2.95-9.2 4.75t-12.42 1.8q-6.84 0-11.92-1.33-5.07-1.33-8.43-3.54-3.37-2.21-5.02-5.1t-1.65-6.02q0-4.25 2.57-7.11 2.56-2.86 7.05-4.57-2.42-1.24-3.84-3.31-1.42-2.06-1.42-5.42 0-1.36.51-2.81.5-1.44 1.47-2.86.97-1.41 2.45-2.68 1.47-1.27 3.48-2.27-4.6-2.48-7.23-6.61-2.62-4.13-2.62-9.68 0-4.48 1.8-8.11t5.01-6.2q3.22-2.56 7.61-3.92 4.4-1.36 9.59-1.36 3.89 0 7.32.8 3.42.8 6.25 2.33m38.11 21.24h27.5q0-2.83-.8-5.34-.79-2.51-2.39-4.39-1.59-1.89-4.04-2.98-2.45-1.1-5.69-1.1-6.32 0-9.94 3.6-3.63 3.6-4.64 10.21m37.17 8.79h-37.46q.35 4.66 1.65 8.06 1.3 3.39 3.42 5.6 2.13 2.21 5.05 3.3 2.92 1.1 6.46 1.1t6.11-.83q2.56-.83 4.48-1.83t3.36-1.83q1.45-.82 2.8-.82 1.83 0 2.72 1.35l4.19 5.31q-2.42 2.83-5.43 4.75t-6.28 3.07q-3.28 1.15-6.67 1.62-3.39.48-6.58.48-6.31 0-11.74-2.1-5.43-2.09-9.44-6.19-4.01-4.11-6.31-10.15-2.3-6.05-2.3-14.02 0-6.19 2-11.65 2.01-5.46 5.75-9.5 3.75-4.04 9.15-6.4t12.18-2.36q5.73 0 10.56 1.83 4.84 1.83 8.32 5.34t5.46 8.61q1.98 5.11 1.98 11.66 0 3.3-.71 4.45t-2.72 1.15m26.97-29.44 1 4.78q1.83-1.83 3.87-3.39 2.03-1.57 4.3-2.66t4.87-1.71 5.66-.62q4.96 0 8.79 1.68 3.84 1.68 6.41 4.72 2.56 3.04 3.89 7.26t1.33 9.29v38.53h-14.58v-38.53q0-5.54-2.53-8.58-2.54-3.04-7.73-3.04-3.78 0-7.08 1.71-3.31 1.71-6.26 4.66v43.78h-14.57v-60.53h8.91q2.83 0 3.72 2.65m111.39 44.31h21.89q2.36 0 3.75 1.33 1.38 1.32 1.38 3.51v8.73h-58.53v-4.84q0-1.47.62-3.1.62-1.62 1.98-2.92l25.9-25.96q3.25-3.3 5.81-6.31 2.57-3.01 4.28-5.96t2.63-5.99q.91-3.04.91-6.4 0-3.07-.89-5.4-.88-2.33-2.5-3.92-1.63-1.59-3.9-2.39t-5.1-.8q-2.6 0-4.81.74t-3.92 2.07q-1.71 1.32-2.89 3.09t-1.77 3.9q-1.01 2.71-2.6 3.6-1.59.88-4.6.41l-7.67-1.36q.88-6.13 3.42-10.76 2.54-4.64 6.34-7.73 3.81-3.1 8.74-4.66 4.92-1.57 10.59-1.57 5.9 0 10.79 1.74 4.9 1.74 8.38 4.93 3.48 3.18 5.43 7.67 1.95 4.48 1.95 9.97 0 4.72-1.39 8.73t-3.72 7.67-5.46 7.08q-3.12 3.42-6.54 6.96l-19.24 19.65q2.77-.83 5.52-1.27 2.74-.44 5.22-.44"/></svg>